<mxfile host="Electron" agent="Mozilla/5.0 (Windows NT 10.0; Win64; x64) AppleWebKit/537.36 (KHTML, like Gecko) draw.io/25.0.2 Chrome/128.0.6613.186 Electron/32.2.5 Safari/537.36" version="25.0.2">
  <diagram name="Страница — 1" id="usfzSMHh_gBtJqY2iGYo">
    <mxGraphModel dx="3252" dy="1638" grid="1" gridSize="10" guides="1" tooltips="1" connect="1" arrows="1" fold="1" page="1" pageScale="1" pageWidth="827" pageHeight="1169" math="0" shadow="0">
      <root>
        <mxCell id="0" />
        <mxCell id="1" parent="0" />
        <mxCell id="c0yU30L7kKq1lyJ8Bi9i-4" style="rounded=0;orthogonalLoop=1;jettySize=auto;html=1;entryX=0.5;entryY=-0.012;entryDx=0;entryDy=0;entryPerimeter=0;" parent="1" source="c0yU30L7kKq1lyJ8Bi9i-2" target="c0yU30L7kKq1lyJ8Bi9i-3" edge="1">
          <mxGeometry relative="1" as="geometry" />
        </mxCell>
        <mxCell id="c0yU30L7kKq1lyJ8Bi9i-2" value="" style="ellipse;whiteSpace=wrap;html=1;aspect=fixed;gradientColor=none;fillColor=#000000;shadow=0;" parent="1" vertex="1">
          <mxGeometry x="430" y="20" width="30" height="30" as="geometry" />
        </mxCell>
        <mxCell id="c0yU30L7kKq1lyJ8Bi9i-6" style="edgeStyle=orthogonalEdgeStyle;rounded=0;orthogonalLoop=1;jettySize=auto;html=1;entryX=0.5;entryY=0;entryDx=0;entryDy=0;" parent="1" source="c0yU30L7kKq1lyJ8Bi9i-3" target="c0yU30L7kKq1lyJ8Bi9i-5" edge="1">
          <mxGeometry relative="1" as="geometry" />
        </mxCell>
        <mxCell id="c0yU30L7kKq1lyJ8Bi9i-3" value="Запуск бота" style="rounded=1;whiteSpace=wrap;html=1;" parent="1" vertex="1">
          <mxGeometry x="392.5" y="100" width="105" height="40" as="geometry" />
        </mxCell>
        <mxCell id="c0yU30L7kKq1lyJ8Bi9i-7" style="edgeStyle=orthogonalEdgeStyle;rounded=0;orthogonalLoop=1;jettySize=auto;html=1;exitX=0;exitY=0.5;exitDx=0;exitDy=0;" parent="1" source="c0yU30L7kKq1lyJ8Bi9i-5" edge="1">
          <mxGeometry relative="1" as="geometry">
            <mxPoint x="-150" y="250" as="targetPoint" />
            <mxPoint x="227.5" y="220" as="sourcePoint" />
          </mxGeometry>
        </mxCell>
        <mxCell id="c0yU30L7kKq1lyJ8Bi9i-9" style="edgeStyle=orthogonalEdgeStyle;rounded=0;orthogonalLoop=1;jettySize=auto;html=1;" parent="1" source="c0yU30L7kKq1lyJ8Bi9i-5" edge="1">
          <mxGeometry relative="1" as="geometry">
            <mxPoint x="830" y="250" as="targetPoint" />
          </mxGeometry>
        </mxCell>
        <mxCell id="c0yU30L7kKq1lyJ8Bi9i-5" value="" style="rhombus;whiteSpace=wrap;html=1;" parent="1" vertex="1">
          <mxGeometry x="397.5" y="180" width="95" height="40" as="geometry" />
        </mxCell>
        <mxCell id="c0yU30L7kKq1lyJ8Bi9i-8" value="[Пользователь]" style="text;html=1;align=center;verticalAlign=middle;resizable=0;points=[];autosize=1;strokeColor=none;fillColor=none;" parent="1" vertex="1">
          <mxGeometry x="-55" y="168" width="110" height="30" as="geometry" />
        </mxCell>
        <mxCell id="c0yU30L7kKq1lyJ8Bi9i-10" value="[Психолог]" style="text;html=1;align=center;verticalAlign=middle;resizable=0;points=[];autosize=1;strokeColor=none;fillColor=none;" parent="1" vertex="1">
          <mxGeometry x="635" y="168" width="80" height="30" as="geometry" />
        </mxCell>
        <mxCell id="c0yU30L7kKq1lyJ8Bi9i-12" value="" style="endArrow=none;html=1;rounded=0;" parent="1" edge="1">
          <mxGeometry width="50" height="50" relative="1" as="geometry">
            <mxPoint x="-510" y="250" as="sourcePoint" />
            <mxPoint x="140" y="250" as="targetPoint" />
            <Array as="points">
              <mxPoint x="27.5" y="250" />
            </Array>
          </mxGeometry>
        </mxCell>
        <mxCell id="c0yU30L7kKq1lyJ8Bi9i-13" value="" style="endArrow=classic;html=1;rounded=0;" parent="1" edge="1">
          <mxGeometry width="50" height="50" relative="1" as="geometry">
            <mxPoint x="-510" y="250" as="sourcePoint" />
            <mxPoint x="-510" y="280" as="targetPoint" />
          </mxGeometry>
        </mxCell>
        <mxCell id="c0yU30L7kKq1lyJ8Bi9i-23" style="edgeStyle=orthogonalEdgeStyle;rounded=0;orthogonalLoop=1;jettySize=auto;html=1;" parent="1" source="c0yU30L7kKq1lyJ8Bi9i-14" target="c0yU30L7kKq1lyJ8Bi9i-22" edge="1">
          <mxGeometry relative="1" as="geometry" />
        </mxCell>
        <mxCell id="c0yU30L7kKq1lyJ8Bi9i-14" value="Запуск бота" style="rounded=1;whiteSpace=wrap;html=1;" parent="1" vertex="1">
          <mxGeometry x="-560" y="280" width="105" height="40" as="geometry" />
        </mxCell>
        <mxCell id="5_mmA-VCduJ87uUV_mb8-3" style="rounded=0;orthogonalLoop=1;jettySize=auto;html=1;exitX=0.5;exitY=1;exitDx=0;exitDy=0;" edge="1" parent="1" source="c0yU30L7kKq1lyJ8Bi9i-15">
          <mxGeometry relative="1" as="geometry">
            <mxPoint x="-353" y="640" as="targetPoint" />
          </mxGeometry>
        </mxCell>
        <mxCell id="c0yU30L7kKq1lyJ8Bi9i-15" value="Авторизация" style="rounded=1;whiteSpace=wrap;html=1;" parent="1" vertex="1">
          <mxGeometry x="-406" y="360" width="105" height="40" as="geometry" />
        </mxCell>
        <mxCell id="c0yU30L7kKq1lyJ8Bi9i-25" style="edgeStyle=orthogonalEdgeStyle;rounded=0;orthogonalLoop=1;jettySize=auto;html=1;" parent="1" source="c0yU30L7kKq1lyJ8Bi9i-19" target="c0yU30L7kKq1lyJ8Bi9i-24" edge="1">
          <mxGeometry relative="1" as="geometry" />
        </mxCell>
        <mxCell id="c0yU30L7kKq1lyJ8Bi9i-19" value="Получение новостей и статей" style="rounded=1;whiteSpace=wrap;html=1;" parent="1" vertex="1">
          <mxGeometry x="-250" y="280" width="105" height="40" as="geometry" />
        </mxCell>
        <mxCell id="c0yU30L7kKq1lyJ8Bi9i-31" style="edgeStyle=orthogonalEdgeStyle;rounded=0;orthogonalLoop=1;jettySize=auto;html=1;entryX=0.5;entryY=0;entryDx=0;entryDy=0;" parent="1" source="c0yU30L7kKq1lyJ8Bi9i-20" target="c0yU30L7kKq1lyJ8Bi9i-26" edge="1">
          <mxGeometry relative="1" as="geometry" />
        </mxCell>
        <mxCell id="c0yU30L7kKq1lyJ8Bi9i-20" value="Получение психологических тестов" style="rounded=1;whiteSpace=wrap;html=1;" parent="1" vertex="1">
          <mxGeometry x="-90" y="280" width="105" height="40" as="geometry" />
        </mxCell>
        <mxCell id="c0yU30L7kKq1lyJ8Bi9i-32" style="edgeStyle=orthogonalEdgeStyle;rounded=0;orthogonalLoop=1;jettySize=auto;html=1;entryX=0.5;entryY=0;entryDx=0;entryDy=0;" parent="1" source="c0yU30L7kKq1lyJ8Bi9i-21" target="c0yU30L7kKq1lyJ8Bi9i-27" edge="1">
          <mxGeometry relative="1" as="geometry" />
        </mxCell>
        <mxCell id="c0yU30L7kKq1lyJ8Bi9i-21" value="Получение анкет от психологов" style="rounded=1;whiteSpace=wrap;html=1;" parent="1" vertex="1">
          <mxGeometry x="80" y="280" width="105" height="40" as="geometry" />
        </mxCell>
        <mxCell id="5_mmA-VCduJ87uUV_mb8-2" style="rounded=0;orthogonalLoop=1;jettySize=auto;html=1;exitX=0.5;exitY=1;exitDx=0;exitDy=0;" edge="1" parent="1" source="c0yU30L7kKq1lyJ8Bi9i-22">
          <mxGeometry relative="1" as="geometry">
            <mxPoint x="-507" y="640" as="targetPoint" />
          </mxGeometry>
        </mxCell>
        <mxCell id="c0yU30L7kKq1lyJ8Bi9i-22" value="Приветственное сообщение" style="rounded=1;whiteSpace=wrap;html=1;" parent="1" vertex="1">
          <mxGeometry x="-560" y="360" width="105" height="40" as="geometry" />
        </mxCell>
        <mxCell id="5_mmA-VCduJ87uUV_mb8-4" style="rounded=0;orthogonalLoop=1;jettySize=auto;html=1;exitX=0.5;exitY=1;exitDx=0;exitDy=0;" edge="1" parent="1" source="c0yU30L7kKq1lyJ8Bi9i-24">
          <mxGeometry relative="1" as="geometry">
            <mxPoint x="-197" y="640" as="targetPoint" />
          </mxGeometry>
        </mxCell>
        <mxCell id="c0yU30L7kKq1lyJ8Bi9i-24" value="Просмотр контента" style="rounded=1;whiteSpace=wrap;html=1;" parent="1" vertex="1">
          <mxGeometry x="-250" y="360" width="105" height="40" as="geometry" />
        </mxCell>
        <mxCell id="5_mmA-VCduJ87uUV_mb8-5" style="rounded=0;orthogonalLoop=1;jettySize=auto;html=1;exitX=0.5;exitY=1;exitDx=0;exitDy=0;" edge="1" parent="1" source="c0yU30L7kKq1lyJ8Bi9i-26">
          <mxGeometry relative="1" as="geometry">
            <mxPoint x="-37" y="640" as="targetPoint" />
          </mxGeometry>
        </mxCell>
        <mxCell id="c0yU30L7kKq1lyJ8Bi9i-26" value="Прохождение тестов" style="rounded=1;whiteSpace=wrap;html=1;" parent="1" vertex="1">
          <mxGeometry x="-90" y="360" width="105" height="40" as="geometry" />
        </mxCell>
        <mxCell id="5_mmA-VCduJ87uUV_mb8-6" style="rounded=0;orthogonalLoop=1;jettySize=auto;html=1;exitX=0.5;exitY=1;exitDx=0;exitDy=0;" edge="1" parent="1" source="c0yU30L7kKq1lyJ8Bi9i-27">
          <mxGeometry relative="1" as="geometry">
            <mxPoint x="133" y="640" as="targetPoint" />
          </mxGeometry>
        </mxCell>
        <mxCell id="c0yU30L7kKq1lyJ8Bi9i-27" value="Прохождение анкет" style="rounded=1;whiteSpace=wrap;html=1;" parent="1" vertex="1">
          <mxGeometry x="80" y="360" width="105" height="40" as="geometry" />
        </mxCell>
        <mxCell id="c0yU30L7kKq1lyJ8Bi9i-28" value="" style="endArrow=classic;html=1;rounded=0;entryX=0.475;entryY=-0.013;entryDx=0;entryDy=0;entryPerimeter=0;" parent="1" target="c0yU30L7kKq1lyJ8Bi9i-15" edge="1">
          <mxGeometry width="50" height="50" relative="1" as="geometry">
            <mxPoint x="-356" y="250" as="sourcePoint" />
            <mxPoint x="-356" y="280" as="targetPoint" />
          </mxGeometry>
        </mxCell>
        <mxCell id="c0yU30L7kKq1lyJ8Bi9i-29" value="" style="endArrow=classic;html=1;rounded=0;entryX=0.475;entryY=-0.013;entryDx=0;entryDy=0;entryPerimeter=0;" parent="1" edge="1">
          <mxGeometry width="50" height="50" relative="1" as="geometry">
            <mxPoint x="-197.55" y="251" as="sourcePoint" />
            <mxPoint x="-197.55" y="280" as="targetPoint" />
          </mxGeometry>
        </mxCell>
        <mxCell id="c0yU30L7kKq1lyJ8Bi9i-33" value="" style="endArrow=classic;html=1;rounded=0;entryX=0.5;entryY=0;entryDx=0;entryDy=0;" parent="1" target="c0yU30L7kKq1lyJ8Bi9i-20" edge="1">
          <mxGeometry width="50" height="50" relative="1" as="geometry">
            <mxPoint x="-37" y="250" as="sourcePoint" />
            <mxPoint x="-20" y="250" as="targetPoint" />
          </mxGeometry>
        </mxCell>
        <mxCell id="c0yU30L7kKq1lyJ8Bi9i-34" style="edgeStyle=orthogonalEdgeStyle;rounded=0;orthogonalLoop=1;jettySize=auto;html=1;entryX=0.5;entryY=0;entryDx=0;entryDy=0;" parent="1" target="c0yU30L7kKq1lyJ8Bi9i-21" edge="1">
          <mxGeometry relative="1" as="geometry">
            <mxPoint x="132.24" y="250" as="sourcePoint" />
            <mxPoint x="132.24" y="290" as="targetPoint" />
          </mxGeometry>
        </mxCell>
        <mxCell id="sCvkFEpSh0oFNajZSZZl-14" style="rounded=0;orthogonalLoop=1;jettySize=auto;html=1;" parent="1" source="sCvkFEpSh0oFNajZSZZl-2" target="sCvkFEpSh0oFNajZSZZl-13" edge="1">
          <mxGeometry relative="1" as="geometry" />
        </mxCell>
        <mxCell id="sCvkFEpSh0oFNajZSZZl-2" value="Обработка анонимных сообщений" style="rounded=1;whiteSpace=wrap;html=1;" parent="1" vertex="1">
          <mxGeometry x="890" y="280" width="105" height="40" as="geometry" />
        </mxCell>
        <mxCell id="5_mmA-VCduJ87uUV_mb8-10" style="edgeStyle=orthogonalEdgeStyle;rounded=0;orthogonalLoop=1;jettySize=auto;html=1;exitX=0.5;exitY=1;exitDx=0;exitDy=0;" edge="1" parent="1" source="sCvkFEpSh0oFNajZSZZl-3">
          <mxGeometry relative="1" as="geometry">
            <mxPoint x="680" y="640" as="targetPoint" />
          </mxGeometry>
        </mxCell>
        <mxCell id="sCvkFEpSh0oFNajZSZZl-3" value="Публикация контента" style="rounded=1;whiteSpace=wrap;html=1;" parent="1" vertex="1">
          <mxGeometry x="640" y="280" width="80" height="40" as="geometry" />
        </mxCell>
        <mxCell id="5_mmA-VCduJ87uUV_mb8-12" style="rounded=0;orthogonalLoop=1;jettySize=auto;html=1;exitX=0.5;exitY=1;exitDx=0;exitDy=0;" edge="1" parent="1" source="sCvkFEpSh0oFNajZSZZl-4">
          <mxGeometry relative="1" as="geometry">
            <mxPoint x="813" y="640" as="targetPoint" />
          </mxGeometry>
        </mxCell>
        <mxCell id="sCvkFEpSh0oFNajZSZZl-4" value="Публикация анкет" style="rounded=1;whiteSpace=wrap;html=1;" parent="1" vertex="1">
          <mxGeometry x="760" y="280" width="105" height="40" as="geometry" />
        </mxCell>
        <mxCell id="sCvkFEpSh0oFNajZSZZl-10" value="" style="endArrow=classic;html=1;rounded=0;entryX=0.478;entryY=-0.015;entryDx=0;entryDy=0;entryPerimeter=0;" parent="1" target="sCvkFEpSh0oFNajZSZZl-4" edge="1">
          <mxGeometry width="50" height="50" relative="1" as="geometry">
            <mxPoint x="810" y="250" as="sourcePoint" />
            <mxPoint x="840" y="260" as="targetPoint" />
          </mxGeometry>
        </mxCell>
        <mxCell id="sCvkFEpSh0oFNajZSZZl-61" style="edgeStyle=orthogonalEdgeStyle;rounded=0;orthogonalLoop=1;jettySize=auto;html=1;exitX=0.5;exitY=1;exitDx=0;exitDy=0;" parent="1" source="sCvkFEpSh0oFNajZSZZl-13" target="sCvkFEpSh0oFNajZSZZl-56" edge="1">
          <mxGeometry relative="1" as="geometry" />
        </mxCell>
        <mxCell id="sCvkFEpSh0oFNajZSZZl-13" value="Ответы на анонимные обращения" style="rounded=1;whiteSpace=wrap;html=1;" parent="1" vertex="1">
          <mxGeometry x="890" y="360" width="105" height="40" as="geometry" />
        </mxCell>
        <mxCell id="sCvkFEpSh0oFNajZSZZl-54" style="edgeStyle=orthogonalEdgeStyle;rounded=0;orthogonalLoop=1;jettySize=auto;html=1;entryX=0.5;entryY=0;entryDx=0;entryDy=0;" parent="1" source="sCvkFEpSh0oFNajZSZZl-56" target="sCvkFEpSh0oFNajZSZZl-57" edge="1">
          <mxGeometry relative="1" as="geometry" />
        </mxCell>
        <mxCell id="5_mmA-VCduJ87uUV_mb8-11" style="edgeStyle=orthogonalEdgeStyle;rounded=0;orthogonalLoop=1;jettySize=auto;html=1;exitX=1;exitY=0.5;exitDx=0;exitDy=0;entryX=0;entryY=0.5;entryDx=0;entryDy=0;" edge="1" parent="1" source="sCvkFEpSh0oFNajZSZZl-56" target="Lqrpq_iRCu3QBZQFHE30-6">
          <mxGeometry relative="1" as="geometry" />
        </mxCell>
        <mxCell id="sCvkFEpSh0oFNajZSZZl-56" value="" style="rhombus;whiteSpace=wrap;html=1;" parent="1" vertex="1">
          <mxGeometry x="901.5" y="440" width="82" height="40" as="geometry" />
        </mxCell>
        <mxCell id="5_mmA-VCduJ87uUV_mb8-13" style="edgeStyle=orthogonalEdgeStyle;rounded=0;orthogonalLoop=1;jettySize=auto;html=1;exitX=0.5;exitY=1;exitDx=0;exitDy=0;" edge="1" parent="1" source="sCvkFEpSh0oFNajZSZZl-57">
          <mxGeometry relative="1" as="geometry">
            <mxPoint x="942" y="640" as="targetPoint" />
          </mxGeometry>
        </mxCell>
        <mxCell id="sCvkFEpSh0oFNajZSZZl-57" value="Сообщить об ошибке" style="rounded=1;whiteSpace=wrap;html=1;" parent="1" vertex="1">
          <mxGeometry x="890" y="520" width="105" height="40" as="geometry" />
        </mxCell>
        <mxCell id="sCvkFEpSh0oFNajZSZZl-58" value="[Обращение не отправлено]" style="text;html=1;align=center;verticalAlign=middle;resizable=0;points=[];autosize=1;strokeColor=none;fillColor=none;" parent="1" vertex="1">
          <mxGeometry x="940" y="490" width="180" height="30" as="geometry" />
        </mxCell>
        <mxCell id="sCvkFEpSh0oFNajZSZZl-60" value="[Обращение отправлено]" style="text;html=1;align=center;verticalAlign=middle;resizable=0;points=[];autosize=1;strokeColor=none;fillColor=none;" parent="1" vertex="1">
          <mxGeometry x="970" y="410" width="160" height="30" as="geometry" />
        </mxCell>
        <mxCell id="aEb_i5zCXOhdtHMT1TnR-1" value="" style="endArrow=none;html=1;rounded=0;" parent="1" edge="1">
          <mxGeometry width="50" height="50" relative="1" as="geometry">
            <mxPoint x="681.5" y="250" as="sourcePoint" />
            <mxPoint x="941.5" y="250" as="targetPoint" />
          </mxGeometry>
        </mxCell>
        <mxCell id="aEb_i5zCXOhdtHMT1TnR-5" value="" style="endArrow=classic;html=1;rounded=0;entryX=0.5;entryY=0;entryDx=0;entryDy=0;" parent="1" target="sCvkFEpSh0oFNajZSZZl-3" edge="1">
          <mxGeometry width="50" height="50" relative="1" as="geometry">
            <mxPoint x="680" y="250" as="sourcePoint" />
            <mxPoint x="720" y="340" as="targetPoint" />
            <Array as="points">
              <mxPoint x="680" y="260" />
            </Array>
          </mxGeometry>
        </mxCell>
        <mxCell id="aEb_i5zCXOhdtHMT1TnR-6" value="" style="endArrow=none;html=1;rounded=0;" parent="1" edge="1">
          <mxGeometry width="50" height="50" relative="1" as="geometry">
            <mxPoint x="272" y="260" as="sourcePoint" />
            <mxPoint x="542" y="260" as="targetPoint" />
          </mxGeometry>
        </mxCell>
        <mxCell id="5_mmA-VCduJ87uUV_mb8-7" style="rounded=0;orthogonalLoop=1;jettySize=auto;html=1;exitX=0.5;exitY=1;exitDx=0;exitDy=0;" edge="1" parent="1" source="aEb_i5zCXOhdtHMT1TnR-8">
          <mxGeometry relative="1" as="geometry">
            <mxPoint x="273" y="640" as="targetPoint" />
          </mxGeometry>
        </mxCell>
        <mxCell id="aEb_i5zCXOhdtHMT1TnR-8" value="Блокировка пользователя" style="rounded=1;whiteSpace=wrap;html=1;" parent="1" vertex="1">
          <mxGeometry x="232" y="280" width="80" height="40" as="geometry" />
        </mxCell>
        <mxCell id="5_mmA-VCduJ87uUV_mb8-8" style="rounded=0;orthogonalLoop=1;jettySize=auto;html=1;exitX=0.5;exitY=1;exitDx=0;exitDy=0;" edge="1" parent="1" source="aEb_i5zCXOhdtHMT1TnR-9">
          <mxGeometry relative="1" as="geometry">
            <mxPoint x="400" y="640" as="targetPoint" />
          </mxGeometry>
        </mxCell>
        <mxCell id="aEb_i5zCXOhdtHMT1TnR-9" value="Разблокировка пользователя" style="rounded=1;whiteSpace=wrap;html=1;" parent="1" vertex="1">
          <mxGeometry x="352" y="280" width="90" height="40" as="geometry" />
        </mxCell>
        <mxCell id="5_mmA-VCduJ87uUV_mb8-9" style="rounded=0;orthogonalLoop=1;jettySize=auto;html=1;exitX=0.5;exitY=1;exitDx=0;exitDy=0;" edge="1" parent="1" source="aEb_i5zCXOhdtHMT1TnR-10">
          <mxGeometry relative="1" as="geometry">
            <mxPoint x="540" y="640" as="targetPoint" />
          </mxGeometry>
        </mxCell>
        <mxCell id="aEb_i5zCXOhdtHMT1TnR-10" value="Список заблокированных пользователей" style="rounded=1;whiteSpace=wrap;html=1;" parent="1" vertex="1">
          <mxGeometry x="484.5" y="280" width="110" height="40" as="geometry" />
        </mxCell>
        <mxCell id="aEb_i5zCXOhdtHMT1TnR-11" value="" style="endArrow=classic;html=1;rounded=0;entryX=0.5;entryY=0;entryDx=0;entryDy=0;" parent="1" target="aEb_i5zCXOhdtHMT1TnR-8" edge="1">
          <mxGeometry width="50" height="50" relative="1" as="geometry">
            <mxPoint x="272" y="260" as="sourcePoint" />
            <mxPoint x="302" y="270" as="targetPoint" />
          </mxGeometry>
        </mxCell>
        <mxCell id="aEb_i5zCXOhdtHMT1TnR-13" value="" style="endArrow=classic;html=1;rounded=0;entryX=0.445;entryY=-0.007;entryDx=0;entryDy=0;entryPerimeter=0;" parent="1" target="aEb_i5zCXOhdtHMT1TnR-9" edge="1">
          <mxGeometry width="50" height="50" relative="1" as="geometry">
            <mxPoint x="392" y="260" as="sourcePoint" />
            <mxPoint x="402" y="260" as="targetPoint" />
          </mxGeometry>
        </mxCell>
        <mxCell id="aEb_i5zCXOhdtHMT1TnR-16" value="" style="endArrow=classic;html=1;rounded=0;entryX=0.522;entryY=0.001;entryDx=0;entryDy=0;entryPerimeter=0;" parent="1" target="aEb_i5zCXOhdtHMT1TnR-10" edge="1">
          <mxGeometry width="50" height="50" relative="1" as="geometry">
            <mxPoint x="542" y="260" as="sourcePoint" />
            <mxPoint x="582" y="240" as="targetPoint" />
          </mxGeometry>
        </mxCell>
        <mxCell id="aEb_i5zCXOhdtHMT1TnR-18" value="" style="endArrow=classic;html=1;rounded=0;exitX=0.5;exitY=1;exitDx=0;exitDy=0;" parent="1" source="c0yU30L7kKq1lyJ8Bi9i-5" edge="1">
          <mxGeometry width="50" height="50" relative="1" as="geometry">
            <mxPoint x="440" y="280" as="sourcePoint" />
            <mxPoint x="445" y="260" as="targetPoint" />
          </mxGeometry>
        </mxCell>
        <mxCell id="aEb_i5zCXOhdtHMT1TnR-19" value="[Администратор]" style="text;html=1;align=center;verticalAlign=middle;resizable=0;points=[];autosize=1;strokeColor=none;fillColor=none;" parent="1" vertex="1">
          <mxGeometry x="440" y="220" width="120" height="30" as="geometry" />
        </mxCell>
        <mxCell id="5_mmA-VCduJ87uUV_mb8-14" style="rounded=0;orthogonalLoop=1;jettySize=auto;html=1;exitX=0.5;exitY=1;exitDx=0;exitDy=0;" edge="1" parent="1" source="Lqrpq_iRCu3QBZQFHE30-6">
          <mxGeometry relative="1" as="geometry">
            <mxPoint x="1093" y="640" as="targetPoint" />
          </mxGeometry>
        </mxCell>
        <mxCell id="Lqrpq_iRCu3QBZQFHE30-6" value="Отправка сообщения" style="rounded=1;whiteSpace=wrap;html=1;" parent="1" vertex="1">
          <mxGeometry x="1040" y="440" width="105" height="40" as="geometry" />
        </mxCell>
        <mxCell id="Lqrpq_iRCu3QBZQFHE30-11" value="" style="endArrow=classic;html=1;rounded=0;entryX=0.478;entryY=-0.001;entryDx=0;entryDy=0;entryPerimeter=0;" parent="1" target="sCvkFEpSh0oFNajZSZZl-2" edge="1">
          <mxGeometry width="50" height="50" relative="1" as="geometry">
            <mxPoint x="940" y="250" as="sourcePoint" />
            <mxPoint x="970" y="250" as="targetPoint" />
          </mxGeometry>
        </mxCell>
        <mxCell id="v5q4HceAU-9spJrGno5s-3" value="" style="ellipse;html=1;shape=endState;fillColor=#000000;strokeColor=#000000;" parent="1" vertex="1">
          <mxGeometry x="430" y="690" width="30" height="30" as="geometry" />
        </mxCell>
        <mxCell id="5_mmA-VCduJ87uUV_mb8-1" value="" style="endArrow=none;html=1;rounded=0;" edge="1" parent="1">
          <mxGeometry width="50" height="50" relative="1" as="geometry">
            <mxPoint x="-510" y="640" as="sourcePoint" />
            <mxPoint x="1100" y="640" as="targetPoint" />
          </mxGeometry>
        </mxCell>
        <mxCell id="5_mmA-VCduJ87uUV_mb8-16" value="" style="endArrow=classic;html=1;rounded=0;entryX=0.5;entryY=0;entryDx=0;entryDy=0;" edge="1" parent="1" target="v5q4HceAU-9spJrGno5s-3">
          <mxGeometry width="50" height="50" relative="1" as="geometry">
            <mxPoint x="444.96" y="640" as="sourcePoint" />
            <mxPoint x="444.96999999999997" y="700" as="targetPoint" />
          </mxGeometry>
        </mxCell>
      </root>
    </mxGraphModel>
  </diagram>
</mxfile>
